<svg width="109" height="66" viewBox="0 0 109 66" fill="none" xmlns="http://www.w3.org/2000/svg">
<g clip-path="url(#clip0)">
<path d="M2.59702 24.4552C26.6448 23.094 27.3632 38.6343 24.7164 46.5746V67.5597L67.2537 69.2612C70.0896 52.0572 69.1821 15.9478 42.8657 9.14179C16.5493 2.33582 5.05473 16.5149 2.59702 24.4552Z" fill="#99F2DC"/>
<path d="M74.9448 28.7756C75.1397 28.9703 75.2371 29.0677 75.2371 29.1651C75.1397 29.4572 75.1397 29.1651 74.9448 28.7756ZM48.8327 9.49542C52.3403 9.88491 61.7913 12.7088 67.345 15.1431C66.5655 15.1431 65.7861 15.0458 64.8117 14.9484C63.3502 14.851 62.5708 15.5326 62.3759 16.8959C62.181 18.3565 64.5194 20.2066 67.2476 22.4462C69.586 24.2964 72.3141 26.536 73.9705 27.8992C73.191 27.7045 72.6064 27.6071 72.2167 27.5097C69.4885 26.8281 68.4168 26.536 68.8065 29.652C68.9039 30.1388 69.0988 30.5283 69.3911 31.0152C70.268 32.3784 72.8013 36.0787 73.4833 45.524L77.3806 45.0371C76.8935 38.7078 75.6268 34.5207 74.5551 31.9889C77.2832 32.2811 78.6473 31.4047 79.037 29.9441C79.719 27.315 74.1653 22.7384 69.8783 19.3302C69.7808 19.2329 69.6834 19.1355 69.586 19.1355C70.8526 19.0381 71.8269 18.9408 72.509 18.746C75.432 17.6749 75.6268 16.1169 73.6782 14.2668C72.9961 13.5851 71.7295 12.8062 70.0731 12.0272C64.422 9.39804 53.6069 6.18468 49.6121 5.69781L48.8327 9.49542Z" fill="black"/>
<path d="M70.5829 29.3115C70.7728 29.5056 70.8677 29.6027 70.8677 29.6998C70.7728 29.991 70.7728 29.6998 70.5829 29.3115ZM45.1343 10.0917C48.5528 10.48 57.7636 13.295 63.1762 15.7217C62.4165 15.7217 61.6569 15.6247 60.7073 15.5276C59.283 15.4305 58.5233 16.11 58.3334 17.469C58.1435 18.925 60.4224 20.7694 63.0812 23.002C65.3602 24.8463 68.019 27.0789 69.6333 28.4379C68.8736 28.2437 68.3039 28.1466 67.9241 28.0496C65.2653 27.3701 64.2207 27.0789 64.6006 30.1851C64.6955 30.6705 64.8854 31.0587 65.1703 31.5441C66.0249 32.9031 68.4938 36.5917 69.1585 46.0075L72.9568 45.5221C72.482 39.2126 71.2476 35.0386 70.203 32.5148C72.8618 32.806 74.1912 31.9324 74.5711 30.4763C75.2358 27.8554 69.8232 23.2932 65.6451 19.8957C65.5501 19.7987 65.4552 19.7016 65.3602 19.7016C66.5947 19.6045 67.5442 19.5074 68.2089 19.3133C71.0577 18.2455 71.2476 16.6924 69.3484 14.8481C68.6837 14.1686 67.4493 13.3921 65.835 12.6155C60.3275 9.99462 49.7872 6.79132 45.894 6.30597L45.1343 10.0917Z" fill="#99F2DC"/>
<path d="M24.6692 53.4113L24.8641 52.9245C26.423 47.1794 29.346 36.5655 25.5461 30.4309C22.6231 25.6596 15.6079 24.2963 8.00814 22.8357C7.03381 22.641 6.05947 22.4462 5.08514 22.2515C6.15691 17.3828 12.1003 13.0983 19.7976 10.8587C24.1821 9.59279 29.1512 9.00854 34.1203 9.39804C39.0894 9.78754 44.0584 11.1508 48.4429 13.5851C59.1606 19.6224 67.0527 32.7679 64.6169 56.43L64.3246 58.9617L66.8578 58.6696C71.9244 58.0853 76.6986 57.3063 81.0831 56.6247C87.806 55.5536 94.0417 54.5798 100.959 54.1903C102.226 54.093 103.395 55.1641 103.98 56.3326C104.175 56.8195 104.37 57.4037 104.37 57.8906C104.37 58.3774 104.37 58.7669 104.175 59.1564C103.785 59.9354 102.713 60.6171 100.765 60.6171L13.367 61.2013V65.291L100.959 64.6094C104.857 64.6094 107.098 62.9541 108.072 60.8118C108.559 59.8381 108.657 58.6696 108.657 57.5985C108.559 56.5273 108.267 55.5536 107.78 54.5798C106.513 51.9507 103.98 49.9059 100.862 50.1006C93.7494 50.4901 87.4163 51.5612 80.4985 52.6324C76.8935 53.2166 73.0936 53.8008 68.9039 54.3851C70.6577 30.3336 62.0836 16.7011 50.3916 10.0797C45.4225 7.2558 39.8688 5.79518 34.3151 5.40568C28.8589 5.01619 23.4026 5.60043 18.5309 6.96368C8.30044 9.88491 0.700645 16.3116 0.700645 23.9069V25.5622L2.25958 25.9517C3.81851 26.2438 5.47488 26.6333 7.03381 26.9255C13.6593 28.1913 19.895 29.4572 21.8437 32.6706C24.6692 37.3445 22.0385 46.8872 20.6745 52.0481L20.577 52.535L24.6692 53.4113Z" fill="black"/>
<path fill-rule="evenodd" clip-rule="evenodd" d="M7.521 16.7985C5.1826 16.7985 3.33137 18.5513 3.33137 20.6935C3.33137 22.8357 5.1826 24.5885 7.521 24.5885C9.8594 24.5885 11.7106 22.8357 11.7106 20.6935C11.7106 18.5513 9.8594 16.7985 7.521 16.7985Z" fill="black"/>
<path fill-rule="evenodd" clip-rule="evenodd" d="M35.5818 13.8773C33.6331 13.8773 32.0742 15.3379 32.0742 17.0906C32.0742 18.8434 33.6331 20.304 35.5818 20.304C37.5305 20.304 39.0894 18.8434 39.0894 17.0906C39.0894 15.3379 37.433 13.8773 35.5818 13.8773Z" fill="black"/>
<path d="M41.038 8.42429C42.4021 6.08731 43.5713 5.21093 44.3508 5.11356C44.4482 5.11356 44.6431 5.11356 44.7405 5.21093C44.9354 5.30831 45.0328 5.50306 45.1302 5.69781C45.6174 6.57418 45.6174 7.84005 44.9354 8.91117L48.443 10.956C49.9045 8.52167 49.807 5.69781 48.6378 3.65294C48.1507 2.87394 47.5661 2.19232 46.7866 1.70545C46.0071 1.21858 45.0328 0.926453 43.961 1.02383C41.9149 1.1212 39.5765 2.58182 37.433 6.28205L41.038 8.42429Z" fill="black"/>
<path d="M27.6897 7.45055C27.6897 4.62669 26.5205 2.48445 24.9615 1.41333C24.2795 0.926453 23.4026 0.634329 22.6231 0.634329C21.7462 0.634329 20.9668 0.926453 20.1873 1.5107C18.7258 2.58182 17.5566 4.91881 17.5566 8.61904H21.6488C21.6488 6.37943 22.0385 5.11356 22.6231 4.72406C22.6231 4.72406 22.7206 4.72406 22.7206 4.82144C23.2077 5.21093 23.5975 6.08731 23.5975 7.45055H27.6897Z" fill="black"/>
<path fill-rule="evenodd" clip-rule="evenodd" d="M22.5257 11.5403C20.5771 11.5403 19.0181 13.0009 19.0181 14.7536C19.0181 16.5064 20.5771 17.967 22.5257 17.967C24.4744 17.967 26.0333 16.5064 26.0333 14.7536C26.0333 13.0009 24.4744 11.5403 22.5257 11.5403Z" fill="black"/>
<path d="M13.1721 26.4386C12.9772 27.2176 12.4901 29.0677 12.0029 30.5283C11.7106 31.3073 11.5157 32.0863 11.4183 32.3784L15.3156 33.5469C15.5105 32.8653 15.7054 32.2811 15.9002 31.6968C16.3874 30.1388 16.972 28.1913 17.1669 27.2176L13.1721 26.4386Z" fill="black"/>
<path d="M17.5566 27.9966C17.3618 28.7756 16.8746 30.6257 16.3874 32.0863C16.0951 32.8653 15.9003 33.6443 15.8028 33.9364L19.7002 35.1049C19.895 34.4233 20.0899 33.8391 20.2848 33.2548C20.7719 31.6968 21.3565 29.7493 21.5514 28.7756L17.5566 27.9966Z" fill="black"/>
<path d="M21.8761 29.8977C24.3741 31.6722 31.1251 33.6054 38.1444 27.1426" stroke="black" stroke-width="4"/>
</g>
<defs>
<clipPath id="clip0">
<rect width="107.761" height="64.6567" fill="white" transform="matrix(-1 0 0 1 108.657 0.634338)"/>
</clipPath>
</defs>
</svg>
