<svg xmlns="http://www.w3.org/2000/svg">

    <symbol id="map" viewBox="0 0 25 30">
        <path fill-rule="evenodd" clip-rule="evenodd" d="M12.5379 29.8956C12.5379 29.8956 24.031 18.4183 24.031 12.4088C24.031 5.7782 18.6514 0.403015 12.0155 0.403015C5.37951 0.403015 0 5.7782 0 12.4088C0 18.4183 11.4931 29.8956 11.4931 29.8956H12.0155H12.5379ZM12.0155 16.2416C14.4286 16.2416 16.3847 14.2854 16.3847 11.8723C16.3847 9.45923 14.4286 7.50304 12.0155 7.50304C9.6024 7.50304 7.64621 9.45923 7.64621 11.8723C7.64621 14.2854 9.6024 16.2416 12.0155 16.2416Z" fill="#99F2DC"/>
    </symbol>

    <symbol id="arrow" viewBox="0 0 17 9" fill="none">
        <path d="M16.3536 4.85355C16.5488 4.65829 16.5488 4.34171 16.3536 4.14645L13.1716 0.964466C12.9763 0.769204 12.6597 0.769204 12.4645 0.964466C12.2692 1.15973 12.2692 1.47631 12.4645 1.67157L15.2929 4.5L12.4645 7.32843C12.2692 7.52369 12.2692 7.84027 12.4645 8.03553C12.6597 8.2308 12.9763 8.2308 13.1716 8.03553L16.3536 4.85355ZM0 5H16V4H0V5Z" fill="#3880F4"/>
    </symbol>

    <symbol id="bober" viewBox="0 0 109 66">
        <g clip-path="url(#clip0)">
            <path d="M2.59702 24.4552C26.6448 23.094 27.3632 38.6343 24.7164 46.5746V67.5597L67.2537 69.2612C70.0896 52.0572 69.1821 15.9478 42.8657 9.14179C16.5493 2.33582 5.05473 16.5149 2.59702 24.4552Z" fill="#99F2DC"/>
            <path d="M74.9448 28.7756C75.1397 28.9703 75.2371 29.0677 75.2371 29.1651C75.1397 29.4572 75.1397 29.1651 74.9448 28.7756ZM48.8327 9.49542C52.3403 9.88491 61.7913 12.7088 67.345 15.1431C66.5655 15.1431 65.7861 15.0458 64.8117 14.9484C63.3502 14.851 62.5708 15.5326 62.3759 16.8959C62.181 18.3565 64.5194 20.2066 67.2476 22.4462C69.586 24.2964 72.3141 26.536 73.9705 27.8992C73.191 27.7045 72.6064 27.6071 72.2167 27.5097C69.4885 26.8281 68.4168 26.536 68.8065 29.652C68.9039 30.1388 69.0988 30.5283 69.3911 31.0152C70.268 32.3784 72.8013 36.0787 73.4833 45.524L77.3806 45.0371C76.8935 38.7078 75.6268 34.5207 74.5551 31.9889C77.2832 32.2811 78.6473 31.4047 79.037 29.9441C79.719 27.315 74.1653 22.7384 69.8783 19.3302C69.7808 19.2329 69.6834 19.1355 69.586 19.1355C70.8526 19.0381 71.8269 18.9408 72.509 18.746C75.432 17.6749 75.6268 16.1169 73.6782 14.2668C72.9961 13.5851 71.7295 12.8062 70.0731 12.0272C64.422 9.39804 53.6069 6.18468 49.6121 5.69781L48.8327 9.49542Z" fill="black"/>
            <path d="M70.5829 29.3115C70.7728 29.5056 70.8677 29.6027 70.8677 29.6998C70.7728 29.991 70.7728 29.6998 70.5829 29.3115ZM45.1343 10.0917C48.5528 10.48 57.7636 13.295 63.1762 15.7217C62.4165 15.7217 61.6569 15.6247 60.7073 15.5276C59.283 15.4305 58.5233 16.11 58.3334 17.469C58.1435 18.925 60.4224 20.7694 63.0812 23.002C65.3602 24.8463 68.019 27.0789 69.6333 28.4379C68.8736 28.2437 68.3039 28.1466 67.9241 28.0496C65.2653 27.3701 64.2207 27.0789 64.6006 30.1851C64.6955 30.6705 64.8854 31.0587 65.1703 31.5441C66.0249 32.9031 68.4938 36.5917 69.1585 46.0075L72.9568 45.5221C72.482 39.2126 71.2476 35.0386 70.203 32.5148C72.8618 32.806 74.1912 31.9324 74.5711 30.4763C75.2358 27.8554 69.8232 23.2932 65.6451 19.8957C65.5501 19.7987 65.4552 19.7016 65.3602 19.7016C66.5947 19.6045 67.5442 19.5074 68.2089 19.3133C71.0577 18.2455 71.2476 16.6924 69.3484 14.8481C68.6837 14.1686 67.4493 13.3921 65.835 12.6155C60.3275 9.99462 49.7872 6.79132 45.894 6.30597L45.1343 10.0917Z" fill="#99F2DC"/>
            <path d="M24.6692 53.4113L24.8641 52.9245C26.423 47.1794 29.346 36.5655 25.5461 30.4309C22.6231 25.6596 15.6079 24.2963 8.00814 22.8357C7.03381 22.641 6.05947 22.4462 5.08514 22.2515C6.15691 17.3828 12.1003 13.0983 19.7976 10.8587C24.1821 9.59279 29.1512 9.00854 34.1203 9.39804C39.0894 9.78754 44.0584 11.1508 48.4429 13.5851C59.1606 19.6224 67.0527 32.7679 64.6169 56.43L64.3246 58.9617L66.8578 58.6696C71.9244 58.0853 76.6986 57.3063 81.0831 56.6247C87.806 55.5536 94.0417 54.5798 100.959 54.1903C102.226 54.093 103.395 55.1641 103.98 56.3326C104.175 56.8195 104.37 57.4037 104.37 57.8906C104.37 58.3774 104.37 58.7669 104.175 59.1564C103.785 59.9354 102.713 60.6171 100.765 60.6171L13.367 61.2013V65.291L100.959 64.6094C104.857 64.6094 107.098 62.9541 108.072 60.8118C108.559 59.8381 108.657 58.6696 108.657 57.5985C108.559 56.5273 108.267 55.5536 107.78 54.5798C106.513 51.9507 103.98 49.9059 100.862 50.1006C93.7494 50.4901 87.4163 51.5612 80.4985 52.6324C76.8935 53.2166 73.0936 53.8008 68.9039 54.3851C70.6577 30.3336 62.0836 16.7011 50.3916 10.0797C45.4225 7.2558 39.8688 5.79518 34.3151 5.40568C28.8589 5.01619 23.4026 5.60043 18.5309 6.96368C8.30044 9.88491 0.700645 16.3116 0.700645 23.9069V25.5622L2.25958 25.9517C3.81851 26.2438 5.47488 26.6333 7.03381 26.9255C13.6593 28.1913 19.895 29.4572 21.8437 32.6706C24.6692 37.3445 22.0385 46.8872 20.6745 52.0481L20.577 52.535L24.6692 53.4113Z" fill="black"/>
            <path fill-rule="evenodd" clip-rule="evenodd" d="M7.521 16.7985C5.1826 16.7985 3.33137 18.5513 3.33137 20.6935C3.33137 22.8357 5.1826 24.5885 7.521 24.5885C9.8594 24.5885 11.7106 22.8357 11.7106 20.6935C11.7106 18.5513 9.8594 16.7985 7.521 16.7985Z" fill="black"/>
            <path fill-rule="evenodd" clip-rule="evenodd" d="M35.5818 13.8773C33.6331 13.8773 32.0742 15.3379 32.0742 17.0906C32.0742 18.8434 33.6331 20.304 35.5818 20.304C37.5305 20.304 39.0894 18.8434 39.0894 17.0906C39.0894 15.3379 37.433 13.8773 35.5818 13.8773Z" fill="black"/>
            <path d="M41.038 8.42429C42.4021 6.08731 43.5713 5.21093 44.3508 5.11356C44.4482 5.11356 44.6431 5.11356 44.7405 5.21093C44.9354 5.30831 45.0328 5.50306 45.1302 5.69781C45.6174 6.57418 45.6174 7.84005 44.9354 8.91117L48.443 10.956C49.9045 8.52167 49.807 5.69781 48.6378 3.65294C48.1507 2.87394 47.5661 2.19232 46.7866 1.70545C46.0071 1.21858 45.0328 0.926453 43.961 1.02383C41.9149 1.1212 39.5765 2.58182 37.433 6.28205L41.038 8.42429Z" fill="black"/>
            <path d="M27.6897 7.45055C27.6897 4.62669 26.5205 2.48445 24.9615 1.41333C24.2795 0.926453 23.4026 0.634329 22.6231 0.634329C21.7462 0.634329 20.9668 0.926453 20.1873 1.5107C18.7258 2.58182 17.5566 4.91881 17.5566 8.61904H21.6488C21.6488 6.37943 22.0385 5.11356 22.6231 4.72406C22.6231 4.72406 22.7206 4.72406 22.7206 4.82144C23.2077 5.21093 23.5975 6.08731 23.5975 7.45055H27.6897Z" fill="black"/>
            <path fill-rule="evenodd" clip-rule="evenodd" d="M22.5257 11.5403C20.5771 11.5403 19.0181 13.0009 19.0181 14.7536C19.0181 16.5064 20.5771 17.967 22.5257 17.967C24.4744 17.967 26.0333 16.5064 26.0333 14.7536C26.0333 13.0009 24.4744 11.5403 22.5257 11.5403Z" fill="black"/>
            <path d="M13.1721 26.4386C12.9772 27.2176 12.4901 29.0677 12.0029 30.5283C11.7106 31.3073 11.5157 32.0863 11.4183 32.3784L15.3156 33.5469C15.5105 32.8653 15.7054 32.2811 15.9002 31.6968C16.3874 30.1388 16.972 28.1913 17.1669 27.2176L13.1721 26.4386Z" fill="black"/>
            <path d="M17.5566 27.9966C17.3618 28.7756 16.8746 30.6257 16.3874 32.0863C16.0951 32.8653 15.9003 33.6443 15.8028 33.9364L19.7002 35.1049C19.895 34.4233 20.0899 33.8391 20.2848 33.2548C20.7719 31.6968 21.3565 29.7493 21.5514 28.7756L17.5566 27.9966Z" fill="black"/>
            <path d="M21.8761 29.8977C24.3741 31.6722 31.1251 33.6054 38.1444 27.1426" stroke="black" stroke-width="4"/>
        </g>
        <defs>
            <clipPath id="clip0">
                <rect width="107.761" height="64.6567" fill="white" transform="matrix(-1 0 0 1 108.657 0.634338)"/>
            </clipPath>
        </defs>
    </symbol>

    <symbol id="facebook" viewBox="0 0 22 22" >
        <path d="M1 0C0.447716 0 0 0.447715 0 1V21C0 21.5523 0.447715 22 1 22H11.7163V13.5019H8.85223V10.0327H11.7163V7.11919C11.7163 5.00029 13.434 3.2826 15.5529 3.2826H18.5471V6.40217H16.4046C15.7314 6.40217 15.1855 6.94801 15.1855 7.62129V10.0327H18.4933L18.0362 13.5019H15.1855V22H21C21.5523 22 22 21.5523 22 21V1C22 0.447716 21.5523 0 21 0H1Z"/>
    </symbol>


    <symbol id="telegram" viewBox="0 0 22 22">
        <path fill-rule="evenodd" clip-rule="evenodd" d="M1 0C0.447715 0 0 0.447716 0 1V21C0 21.5523 0.447716 22 1 22H21C21.5523 22 22 21.5523 22 21V1C22 0.447715 21.5523 0 21 0H1ZM7.27856 11.489L4.03424 10.2781C3.70472 10.1547 3.70186 9.68946 4.03044 9.56274L17.3452 4.4263C17.6275 4.31714 17.9187 4.56443 17.8573 4.86086L15.4678 16.3544C15.4115 16.6258 15.0933 16.7489 14.8688 16.5856L11.607 14.2175C11.4089 14.0737 11.1389 14.0814 10.9493 14.2359L9.14088 15.7101C8.93094 15.8818 8.61466 15.7862 8.53431 15.5275L7.27856 11.489ZM14.6725 6.93926L8.33193 10.8444C8.08891 10.9944 7.97449 11.2879 8.05301 11.5627L8.73856 13.9715C8.78723 14.1422 9.03499 14.1247 9.0586 13.9483L9.23686 12.6274C9.27046 12.3787 9.38911 12.1495 9.57304 11.9783L14.8059 7.11413C14.9037 7.02336 14.7865 6.86928 14.6725 6.93926Z"/>
    </symbol>


    <symbol id="insta" viewBox="0 0 22 22">
        <path d="M10.9998 8.81246C9.79387 8.81246 8.81197 9.79387 8.81197 10.9998C8.81197 12.2061 9.79387 13.188 10.9998 13.188C12.2061 13.188 13.1875 12.2061 13.1875 10.9998C13.1875 9.79387 12.2061 8.81246 10.9998 8.81246ZM10.9998 8.81246C9.79387 8.81246 8.81197 9.79387 8.81197 10.9998C8.81197 12.2061 9.79387 13.188 10.9998 13.188C12.2061 13.188 13.1875 12.2061 13.1875 10.9998C13.1875 9.79387 12.2061 8.81246 10.9998 8.81246ZM14.6445 5.24547H7.35554C6.19213 5.24547 5.24547 6.19213 5.24547 7.35554V14.6445C5.24547 15.8079 6.19213 16.7545 7.35554 16.7545H14.6445C15.8079 16.7545 16.7545 15.8079 16.7545 14.6445V7.35554C16.7545 6.19213 15.8079 5.24547 14.6445 5.24547ZM10.9998 14.7888C8.91093 14.7888 7.2112 13.0891 7.2112 10.9998C7.2112 8.91093 8.91093 7.2112 10.9998 7.2112C13.0891 7.2112 14.7888 8.91093 14.7888 10.9998C14.7888 13.0891 13.0891 14.7888 10.9998 14.7888ZM14.9104 7.99469C14.4161 7.99469 14.014 7.59256 14.014 7.09824C14.014 6.60391 14.4161 6.20179 14.9104 6.20179C15.4048 6.20179 15.8069 6.60391 15.8069 7.09824C15.8069 7.59256 15.4048 7.99469 14.9104 7.99469ZM10.9998 8.81246C9.79387 8.81246 8.81197 9.79387 8.81197 10.9998C8.81197 12.2061 9.79387 13.188 10.9998 13.188C12.2061 13.188 13.1875 12.2061 13.1875 10.9998C13.1875 9.79387 12.2061 8.81246 10.9998 8.81246ZM14.6445 5.24547H7.35554C6.19213 5.24547 5.24547 6.19213 5.24547 7.35554V14.6445C5.24547 15.8079 6.19213 16.7545 7.35554 16.7545H14.6445C15.8079 16.7545 16.7545 15.8079 16.7545 14.6445V7.35554C16.7545 6.19213 15.8079 5.24547 14.6445 5.24547ZM10.9998 14.7888C8.91093 14.7888 7.2112 13.0891 7.2112 10.9998C7.2112 8.91093 8.91093 7.2112 10.9998 7.2112C13.0891 7.2112 14.7888 8.91093 14.7888 10.9998C14.7888 13.0891 13.0891 14.7888 10.9998 14.7888ZM14.9104 7.99469C14.4161 7.99469 14.014 7.59256 14.014 7.09824C14.014 6.60391 14.4161 6.20179 14.9104 6.20179C15.4048 6.20179 15.8069 6.60391 15.8069 7.09824C15.8069 7.59256 15.4048 7.99469 14.9104 7.99469ZM10.9998 8.81246C9.79387 8.81246 8.81197 9.79387 8.81197 10.9998C8.81197 12.2061 9.79387 13.188 10.9998 13.188C12.2061 13.188 13.1875 12.2061 13.1875 10.9998C13.1875 9.79387 12.2061 8.81246 10.9998 8.81246ZM1 0C0.447716 0 0 0.447715 0 1V21C0 21.5523 0.447715 22 1 22H21C21.5523 22 22 21.5523 22 21V1C22 0.447716 21.5523 0 21 0H1ZM18.3553 14.6445C18.3553 16.6908 16.6908 18.3553 14.6445 18.3553H7.35554C5.3092 18.3553 3.6447 16.6908 3.6447 14.6445V7.35554C3.6447 5.3092 5.3092 3.6447 7.35554 3.6447H14.6445C16.6908 3.6447 18.3553 5.3092 18.3553 7.35554V14.6445ZM14.6445 5.24547H7.35554C6.19213 5.24547 5.24547 6.19213 5.24547 7.35554V14.6445C5.24547 15.8079 6.19213 16.7545 7.35554 16.7545H14.6445C15.8079 16.7545 16.7545 15.8079 16.7545 14.6445V7.35554C16.7545 6.19213 15.8079 5.24547 14.6445 5.24547ZM10.9998 14.7888C8.91093 14.7888 7.2112 13.0891 7.2112 10.9998C7.2112 8.91093 8.91093 7.2112 10.9998 7.2112C13.0891 7.2112 14.7888 8.91093 14.7888 10.9998C14.7888 13.0891 13.0891 14.7888 10.9998 14.7888ZM14.9104 7.99469C14.4161 7.99469 14.014 7.59256 14.014 7.09824C14.014 6.60391 14.4161 6.20179 14.9104 6.20179C15.4048 6.20179 15.8069 6.60391 15.8069 7.09824C15.8069 7.59256 15.4048 7.99469 14.9104 7.99469ZM10.9998 8.81246C9.79387 8.81246 8.81197 9.79387 8.81197 10.9998C8.81197 12.2061 9.79387 13.188 10.9998 13.188C12.2061 13.188 13.1875 12.2061 13.1875 10.9998C13.1875 9.79387 12.2061 8.81246 10.9998 8.81246ZM10.9998 8.81246C9.79387 8.81246 8.81197 9.79387 8.81197 10.9998C8.81197 12.2061 9.79387 13.188 10.9998 13.188C12.2061 13.188 13.1875 12.2061 13.1875 10.9998C13.1875 9.79387 12.2061 8.81246 10.9998 8.81246ZM10.9998 8.81246C9.79387 8.81246 8.81197 9.79387 8.81197 10.9998C8.81197 12.2061 9.79387 13.188 10.9998 13.188C12.2061 13.188 13.1875 12.2061 13.1875 10.9998C13.1875 9.79387 12.2061 8.81246 10.9998 8.81246ZM14.6445 5.24547H7.35554C6.19213 5.24547 5.24547 6.19213 5.24547 7.35554V14.6445C5.24547 15.8079 6.19213 16.7545 7.35554 16.7545H14.6445C15.8079 16.7545 16.7545 15.8079 16.7545 14.6445V7.35554C16.7545 6.19213 15.8079 5.24547 14.6445 5.24547ZM10.9998 14.7888C8.91093 14.7888 7.2112 13.0891 7.2112 10.9998C7.2112 8.91093 8.91093 7.2112 10.9998 7.2112C13.0891 7.2112 14.7888 8.91093 14.7888 10.9998C14.7888 13.0891 13.0891 14.7888 10.9998 14.7888ZM14.9104 7.99469C14.4161 7.99469 14.014 7.59256 14.014 7.09824C14.014 6.60391 14.4161 6.20179 14.9104 6.20179C15.4048 6.20179 15.8069 6.60391 15.8069 7.09824C15.8069 7.59256 15.4048 7.99469 14.9104 7.99469ZM10.9998 8.81246C9.79387 8.81246 8.81197 9.79387 8.81197 10.9998C8.81197 12.2061 9.79387 13.188 10.9998 13.188C12.2061 13.188 13.1875 12.2061 13.1875 10.9998C13.1875 9.79387 12.2061 8.81246 10.9998 8.81246ZM10.9998 8.81246C9.79387 8.81246 8.81197 9.79387 8.81197 10.9998C8.81197 12.2061 9.79387 13.188 10.9998 13.188C12.2061 13.188 13.1875 12.2061 13.1875 10.9998C13.1875 9.79387 12.2061 8.81246 10.9998 8.81246ZM10.9998 8.81246C9.79387 8.81246 8.81197 9.79387 8.81197 10.9998C8.81197 12.2061 9.79387 13.188 10.9998 13.188C12.2061 13.188 13.1875 12.2061 13.1875 10.9998C13.1875 9.79387 12.2061 8.81246 10.9998 8.81246ZM14.6445 5.24547H7.35554C6.19213 5.24547 5.24547 6.19213 5.24547 7.35554V14.6445C5.24547 15.8079 6.19213 16.7545 7.35554 16.7545H14.6445C15.8079 16.7545 16.7545 15.8079 16.7545 14.6445V7.35554C16.7545 6.19213 15.8079 5.24547 14.6445 5.24547ZM10.9998 14.7888C8.91093 14.7888 7.2112 13.0891 7.2112 10.9998C7.2112 8.91093 8.91093 7.2112 10.9998 7.2112C13.0891 7.2112 14.7888 8.91093 14.7888 10.9998C14.7888 13.0891 13.0891 14.7888 10.9998 14.7888ZM14.9104 7.99469C14.4161 7.99469 14.014 7.59256 14.014 7.09824C14.014 6.60391 14.4161 6.20179 14.9104 6.20179C15.4048 6.20179 15.8069 6.60391 15.8069 7.09824C15.8069 7.59256 15.4048 7.99469 14.9104 7.99469ZM10.9998 8.81246C9.79387 8.81246 8.81197 9.79387 8.81197 10.9998C8.81197 12.2061 9.79387 13.188 10.9998 13.188C12.2061 13.188 13.1875 12.2061 13.1875 10.9998C13.1875 9.79387 12.2061 8.81246 10.9998 8.81246Z"/>
    </symbol>

    <symbol id="vk" viewBox="0 0 22 22">
        <path fill-rule="evenodd" clip-rule="evenodd" d="M1 0C0.447716 0 0 0.447715 0 1V21C0 21.5523 0.447715 22 1 22H21C21.5523 22 22 21.5523 22 21V1C22 0.447716 21.5523 0 21 0H1ZM16.4926 12.1714C16.9977 12.6641 17.5317 13.128 17.985 13.6727C18.1853 13.9134 18.3747 14.1617 18.5191 14.4406C18.7241 14.8401 18.5383 15.2779 18.1814 15.302L15.9632 15.3011C15.3907 15.3481 14.9345 15.1173 14.5497 14.7256C14.2437 14.4137 13.9577 14.0799 13.6623 13.7574C13.5421 13.6247 13.415 13.5005 13.264 13.4015C12.9609 13.2051 12.6981 13.2647 12.5249 13.5803C12.3488 13.9018 12.3074 14.2588 12.2911 14.6168C12.267 15.1393 12.1093 15.276 11.5849 15.3011C10.4627 15.3531 9.3985 15.1826 8.41014 14.6177C7.5373 14.1194 6.86182 13.4148 6.27377 12.6181C5.12774 11.0648 4.25001 9.35962 3.46193 7.60533C3.2838 7.20996 3.41392 6.99808 3.84869 6.99044C4.57349 6.97613 5.29799 6.97787 6.02176 6.98947C6.31618 6.9944 6.51152 7.16267 6.62413 7.44079C7.01582 8.40328 7.49494 9.31925 8.09634 10.1691C8.25721 10.3953 8.42078 10.6204 8.65258 10.7801C8.90952 10.9572 9.10587 10.8993 9.22704 10.6116C9.30416 10.4288 9.33791 10.2344 9.35416 10.0391C9.41179 9.37021 9.41871 8.70064 9.31944 8.03377C9.25784 7.61693 9.02213 7.34742 8.6065 7.26861C8.39462 7.22819 8.42639 7.15034 8.52841 7.02888C8.7075 6.82024 8.87601 6.69013 9.20983 6.69013H11.4269C11.6196 6.69013 11.8241 6.68549 11.9891 6.78509C12.1604 6.88843 12.2163 7.06012 12.2545 7.34273L12.2565 10.1287C12.2518 10.2827 12.3336 10.7387 12.6097 10.8397C12.8309 10.9128 12.9783 10.7347 13.111 10.5943C13.7114 9.9572 14.1398 9.20388 14.5226 8.4244C14.6921 8.08174 14.8384 7.72577 14.9808 7.36952C15.0858 7.1059 15.2493 6.97608 15.5467 6.98077L17.9602 6.98372C18.0314 6.98372 18.1046 6.98372 18.1748 6.99527C18.5808 7.06548 18.6924 7.24066 18.5663 7.63801C18.3692 8.26054 17.9831 8.78032 17.607 9.30087C17.2037 9.85813 16.7745 10.3959 16.3742 10.9561C16.0086 11.4691 16.0374 11.727 16.4926 12.1714Z"/>
    </symbol>

    <symbol id="message" viewBox="0 0 80 80">
        <circle cx="40" cy="40" r="40"/>
        <path fill-rule="evenodd" clip-rule="evenodd" d="M60 52.5172C60.5523 52.5172 61 52.0695 61 51.5172L61 26C61 25.4477 60.5523 25 60 25L20 25C19.4477 25 19 25.4477 19 26L19 51.5172C19 52.0695 19.4477 52.5172 20 52.5172H29.1379V60.4098C29.1379 61.2756 30.1634 61.7322 30.8069 61.1531L40.4023 52.5172L60 52.5172Z" fill="white"/>
        <path d="M32 39.0052C32 38.3647 32.1798 37.8703 32.5393 37.5222C32.9055 37.1741 33.4349 37 34.1273 37C34.7865 37 35.2926 37.1741 35.6454 37.5222C35.9983 37.8703 36.1748 38.3647 36.1748 39.0052C36.1748 39.6319 35.9917 40.1227 35.6255 40.4778C35.2659 40.8259 34.7665 41 34.1273 41C33.4682 41 32.9488 40.8259 32.5693 40.4778C32.1898 40.1297 32 39.6388 32 39.0052Z"/>
        <path d="M37.9126 39.0052C37.9126 38.3647 38.0924 37.8703 38.4519 37.5222C38.8181 37.1741 39.3475 37 40.04 37C40.6991 37 41.2052 37.1741 41.5581 37.5222C41.9109 37.8703 42.0874 38.3647 42.0874 39.0052C42.0874 39.6319 41.9043 40.1227 41.5381 40.4778C41.1785 40.8259 40.6792 41 40.04 41C39.3808 41 38.8614 40.8259 38.4819 40.4778C38.1024 40.1297 37.9126 39.6388 37.9126 39.0052Z"/>
        <path d="M43.8252 39.0052C43.8252 38.3647 44.005 37.8703 44.3645 37.5222C44.7308 37.1741 45.2601 37 45.9526 37C46.6117 37 47.1178 37.1741 47.4707 37.5222C47.8236 37.8703 48 38.3647 48 39.0052C48 39.6319 47.8169 40.1227 47.4507 40.4778C47.0911 40.8259 46.5918 41 45.9526 41C45.2934 41 44.774 40.8259 44.3945 40.4778C44.015 40.1297 43.8252 39.6388 43.8252 39.0052Z"/>
    </symbol>



</svg>
